<svg width="145" height="54" viewBox="0 0 145 54" fill="none" xmlns="http://www.w3.org/2000/svg">
<g clip-path="url(#clip0_2225_4096)">
<g clip-path="url(#clip1_2225_4096)">
<path d="M21.5019 24.326C19.0438 21.4247 19.8747 24.2553 16.0664 20.8939C20.8095 20.0095 19.7362 20.5048 21.5019 24.326Z" stroke="white" stroke-width="0.5"/>
<path d="M20.1863 22.5697C18.7732 22.3543 18.1018 22.0373 17.1396 21.0837C17.1396 21.0837 17.9083 21.0074 18.4552 21.0837C19.0021 21.1602 18.4552 21.756 19.9261 22.0223C20.1729 22.2287 20.2902 22.6051 20.1863 22.5697Z" fill="white"/>
<path d="M28.4854 24.326C30.9434 21.4247 30.1125 24.2552 33.9208 20.894C29.1778 20.0094 30.251 20.5048 28.4854 24.326Z" stroke="white" stroke-width="0.5"/>
<path d="M29.8015 22.5697C31.2146 22.3543 31.886 22.0373 32.8482 21.0837C32.8482 21.0837 32.0795 21.0074 31.5326 21.0837C30.9857 21.1602 31.5326 21.756 30.0616 22.0223C29.815 22.2287 29.6977 22.6052 29.8015 22.5697Z" fill="white"/>
<g filter="url(#filter0_d_2225_4096)">
<path d="M21.5019 24.326C19.0438 21.4247 19.8747 24.2553 16.0664 20.8939C20.8095 20.0095 19.7362 20.5048 21.5019 24.326Z" stroke="url(#paint0_linear_2225_4096)" stroke-width="0.5"/>
</g>
<g filter="url(#filter1_d_2225_4096)">
<path d="M20.1863 22.5697C18.7732 22.3543 18.1018 22.0373 17.1396 21.0837C17.1396 21.0837 17.9083 21.0074 18.4552 21.0837C19.0021 21.1602 18.4552 21.756 19.9261 22.0223C20.1729 22.2287 20.2902 22.6051 20.1863 22.5697Z" fill="url(#paint1_linear_2225_4096)"/>
</g>
<g filter="url(#filter2_d_2225_4096)">
<path d="M28.4854 24.326C30.9434 21.4247 30.1125 24.2552 33.9208 20.894C29.1778 20.0094 30.251 20.5048 28.4854 24.326Z" stroke="url(#paint2_linear_2225_4096)" stroke-width="0.5"/>
</g>
<g filter="url(#filter3_d_2225_4096)">
<path d="M29.8015 22.5697C31.2146 22.3543 31.886 22.0373 32.8482 21.0837C32.8482 21.0837 32.0795 21.0074 31.5326 21.0837C30.9857 21.1602 31.5326 21.756 30.0616 22.0223C29.815 22.2287 29.6977 22.6052 29.8015 22.5697Z" fill="url(#paint3_linear_2225_4096)"/>
</g>
<g filter="url(#filter4_d_2225_4096)">
<path fill-rule="evenodd" clip-rule="evenodd" d="M15.5054 46.558C15.7819 44.9305 14.813 43.4799 14.7092 41.6754C15.1927 42.6139 15.6393 43.4306 16.0538 44.1428C16.2204 44.4291 16.3818 44.6985 16.5385 44.9522C20.6779 51.6575 21.43 47.3671 24.9167 52.962C28.4035 47.3671 29.1556 51.6575 33.295 44.9522C33.4516 44.6985 33.6131 44.4291 33.7797 44.1428C34.1942 43.4306 34.6407 42.6139 35.1244 41.6754C35.0205 43.4799 34.0516 44.9305 34.3281 46.558C34.9835 45.8314 35.6426 45.3926 36.1976 45.0276L36.2301 45.0063C36.3411 44.9333 36.4478 44.8631 36.5494 44.7941C36.674 44.7093 36.7909 44.6261 36.8983 44.5414C37.1798 44.319 37.3965 44.0857 37.5187 43.7827C37.7071 43.3163 37.6718 42.6849 37.3055 41.6754C37.9029 42.0418 38.4034 43.2025 38.9874 44.1167C39.4187 44.7918 39.8955 45.3325 40.4906 45.3197C40.3175 42.4184 42.2909 41.6754 40.179 37.3943C41.3215 39.1987 42.464 38.9865 42.8794 41.1801C44.7836 39.2695 44.2989 36.7574 42.1524 34.0331C44.0566 35.8729 44.7475 34.8302 46.2723 37.6419C47.3455 33.007 45.199 32.9363 44.1604 29.5043C45.8222 31.4503 46.9978 30.6367 48.1403 32.3703C46.9269 24.6574 45.5091 25.0465 43.3988 23.1711C45.1629 23.1711 46.306 25.6479 49.0756 25.8248C44.5748 18.8901 47.8987 13.2999 42.1514 12.1323C44.2963 12.3093 43.3647 11.7663 46.0284 12.8754C43.5786 9.27335 40.3245 6.36054 36.03 7.03756C36.9292 5.92026 40.039 6.82527 42.0124 6.82527C38.8965 3.57022 32.6827 4.1856 28.8925 6.57751C29.4103 3.6055 34.7766 3.81787 37.2011 3.81787C33.0015 1.45906 29.5432 1.7384 27.2017 3.90241V3.25179C27.8803 2.40891 28.3645 2.10729 29.279 1.65965C28.5041 1.54415 27.9781 1.54884 27.2017 1.9427L28.3096 1.23508C27.5245 0.813393 26.9056 0.760118 25.8169 0.739746V4.52551L25.2975 5.30389V0.739746H24.9167H24.5359V5.30389L24.0166 4.52551V0.739746C22.9279 0.760118 22.3089 0.813393 21.5239 1.23508L22.6317 1.9427C21.8553 1.54884 21.3293 1.54415 20.5545 1.65965C21.469 2.10729 21.9532 2.40891 22.6317 3.25179V3.90241C20.2903 1.7384 16.832 1.45906 12.6323 3.81787C15.057 3.81787 20.4232 3.6055 20.941 6.57751C17.1508 4.1856 10.937 3.57022 7.82111 6.82527C9.7945 6.82527 12.9043 5.92026 13.8034 7.03756C9.50902 6.36054 6.25486 9.27335 3.80508 12.8754C6.46875 11.7663 5.53712 12.3093 7.682 12.1323C1.93485 13.2999 5.25861 18.8901 0.757812 25.8248C3.52749 25.6479 4.6706 23.1711 6.43472 23.1711C4.32439 25.0465 2.90655 24.6574 1.6932 32.3703C2.83565 30.6367 4.01122 31.4503 5.67306 29.5043C4.63443 32.9363 2.48794 33.007 3.56119 37.6419C5.08592 34.8302 5.77692 35.8729 7.6811 34.0331C5.53457 36.7574 5.04988 39.2695 6.95403 41.1801C7.36948 38.9865 8.512 39.1987 9.65449 37.3943C7.54262 41.6754 9.51601 42.4184 9.34291 45.3197C9.93797 45.3325 10.4148 44.7918 10.846 44.1167C11.4301 43.2025 11.9305 42.0418 12.528 41.6754C12.1617 42.6849 12.1264 43.3163 12.3147 43.7827C12.437 44.0857 12.6536 44.319 12.9352 44.5414C13.0426 44.6261 13.1594 44.7093 13.2841 44.7941C13.3856 44.8631 13.4923 44.9333 13.6033 45.0062L13.6359 45.0276C14.1909 45.3926 14.8499 45.8314 15.5054 46.558ZM24.3838 32.9313C24.2593 34.0673 22.2713 35.2494 20.0562 35.6556C19.4053 35.4668 18.8971 35.1783 18.5333 34.7625C18.31 34.5072 18.1412 34.2039 18.0272 33.8462C17.9657 33.6535 17.9202 33.4448 17.8907 33.2195C17.8607 32.9896 17.8473 32.7423 17.8505 32.4765C17.8527 32.2964 17.8626 32.1078 17.8802 31.9104C17.8991 31.6968 17.9272 31.4729 17.9641 31.2381C18.0963 30.4009 18.3431 29.4267 18.706 28.2963L16.8711 29.0747C13.4874 24.8822 13.2828 22.6421 16.6819 17.4041C17.9974 15.9889 18.6962 15.9981 19.987 15.2055L18.706 14.5686C21.6631 13.4148 23.3243 13.583 24.9167 16.6258C26.5091 13.583 28.1703 13.4148 31.1274 14.5686L29.8465 15.2055C31.1372 15.9981 31.836 15.9889 33.1515 17.4041C36.5506 22.6421 36.3461 24.8822 32.9624 29.0747L31.1274 28.2963C32.6255 32.9619 32.1461 34.9683 29.7772 35.6556C27.5622 35.2494 25.5741 34.0673 25.4497 32.9313C25.352 31.0164 28.2539 31.0207 28.7386 30.4192C29.2233 29.8177 28.7387 28.2963 28.3232 27.7303L27.8039 29.6054C27.8039 29.6054 26.5942 29.0387 24.9167 29.0276C23.2393 29.0387 22.0296 29.6054 22.0296 29.6054L21.5103 27.7303C21.0948 28.2963 20.6101 29.8177 21.0948 30.4192C21.5795 31.0207 24.4815 31.0164 24.3838 32.9313ZM20.0562 37.0354L24.9167 34.9531L29.7772 37.0354C29.8835 38.7267 29.6067 39.308 28.7386 39.9368L28.3739 39.1634C28.161 39.9569 27.6392 40.6142 27.2153 40.8213L26.6268 39.4768C26.3583 40.4143 25.2975 40.791 24.9167 41.6048C24.5359 40.791 23.4752 40.4143 23.2067 39.4768L22.6182 40.8213C22.1942 40.6142 21.6725 39.9569 21.4596 39.1634L21.0948 39.9368C20.2268 39.308 19.9499 38.7267 20.0562 37.0354ZM10.384 14.5686C10.5 15.422 10.6651 15.8851 11.3188 16.6561C7.20024 15.0284 11.632 6.92617 14.0551 11.0304C11.5971 9.57975 9.55513 12.764 11.3547 15.5944L10.384 14.5686ZM11.9779 14.6746L11.7702 15.2407C10.0045 13.2948 11.9433 10.6412 12.4972 11.9149L12.9819 12.3041C12.1066 12.942 11.7002 13.6641 11.9779 14.6746ZM15.6118 17.9703L15.3348 18.3948C14.1151 18.6618 13.5109 18.9316 12.5069 19.5206C13.3639 18.5604 14.0239 18.1961 15.6118 17.9703ZM15.958 17.2273C14.2257 17.4263 13.4048 17.7553 12.1497 18.6425C13.3298 17.0585 14.2648 16.5389 16.6819 16.6561L15.958 17.2273ZM16.7543 16.0243C14.8414 15.9195 13.9731 16.3773 12.5041 17.4041C13.95 15.7767 14.4395 15.3524 17.516 15.4936L16.7543 16.0243ZM16.3734 14.7506C14.3543 14.8294 13.5842 15.2891 12.5998 16.555C13.3364 14.9335 14.0653 14.3878 15.8195 13.9368C16.1247 14.174 16.2404 14.3573 16.3734 14.7506ZM16.1657 13.4769C14.3849 13.72 13.3533 14.4322 12.6609 15.3875C12.9033 13.3 15.7337 11.7491 19.4548 12.6985C18.2349 13.0523 17.274 12.8417 16.0965 13.1231L16.1657 13.4769ZM18.797 11.0304C14.9887 10.6818 15.0579 11.7078 13.4653 12.9816C15.0579 12.3041 16.0473 11.528 18.8662 11.7078L18.797 11.0304ZM16.8235 14.7506H17.7584C18.0639 14.2145 18.4638 14.0109 19.1086 13.6184L16.962 13.6892L16.6158 14.2907C16.662 14.444 16.7681 14.7506 16.8235 14.7506ZM15.3348 8.73584C18.1764 9.31673 19.0635 10.2391 20.5626 11.9555C19.9659 8.94813 14.2535 6.18841 10.1682 8.48818L11.3188 8.73584C9.26923 9.28616 8.47177 10.2218 7.682 11.4248C9.89933 10.2926 11.0764 9.16041 14.0885 8.73584L14.0551 9.44346C15.3836 9.82246 15.9234 10.0231 16.6077 10.611L17.2309 10.4695C16.7314 9.64782 16.2827 9.50998 15.231 9.16041L15.3348 8.73584ZM13.5345 21.013L14.5732 20.0224C11.2149 20.8008 9.30787 22.4789 6.92196 24.728L5.88333 24.6219C5.24782 25.3746 4.29989 26.2529 3.73683 27.1339V29.1507C4.40156 27.4339 5.12473 26.3979 5.88333 25.8248C6.9912 26.8155 8.82823 22.7383 13.5345 21.013ZM11.3534 23.3482L13.8115 22.1806L13.9154 21.6499C12.5805 21.8998 11.3119 22.4491 8.47987 25.5418H7.75283C7.70672 25.9428 7.51049 26.8509 7.51049 26.8509C7.51049 26.8509 7.90288 27.0278 7.99518 27.0278L8.16829 26.0725L8.99919 26.214C8.97613 26.0371 8.99919 25.6479 8.99919 25.6479C8.99919 25.6479 10.5918 24.5039 11.3534 24.0558V23.3482ZM5.53712 28.8782C5.53712 29.1713 5.30462 29.4089 5.01781 29.4089C4.731 29.4089 4.49849 29.1713 4.49849 28.8782C4.49849 28.5851 4.731 28.3475 5.01781 28.3475C5.13472 28.3475 5.2426 28.387 5.3294 28.4536L6.40265 27.3108L7.99518 27.8416C10.3494 25.6479 10.9709 24.7981 13.8115 23.8435L12.946 25.0818C12.946 25.0818 12.0375 25.1301 8.27215 28.5492L7.12968 30.2121L6.40265 31.9458L4.36001 33.9271L6.12568 30.2121L7.12968 28.4536L6.50651 28.1246L5.53712 28.8782ZM8.51449 37.1112C8.51449 37.4043 8.28205 37.6419 7.99518 37.6419C7.70838 37.6419 7.47587 37.4043 7.47587 37.1112C7.47587 36.9575 7.53985 36.8191 7.64205 36.7222L8.27215 34.2809L9.65449 32.9718L12.3147 28.5492L13.0764 29.3276L14.0457 29.0747L13.9154 27.6647L14.6689 26.7448L15.3613 27.6647L14.6689 28.3723V30.2121L13.2841 30.7782L12.557 30.4192L12.2108 31.3089V36.5805L10.5837 38.4912V41.5265C10.6523 41.6164 10.6931 41.7296 10.6931 41.8524C10.6931 42.1455 10.4606 42.3831 10.1738 42.3831C9.88694 42.3831 9.65449 42.1455 9.65449 41.8524C9.65449 41.6814 9.73364 41.5292 9.85661 41.4322V38.1374L11.2068 36.4038V32.7241L11.4838 32.2642V31.3089L9.99509 33.9271L8.8526 34.9531L8.41077 36.7929C8.47593 36.8816 8.51449 36.9919 8.51449 37.1112ZM8.47987 31.3089L5.53712 34.0331L6.92196 33.6794L9.65449 31.6273L10.8952 28.5492L13.8115 26.5678L13.9765 25.0818L10.0297 28.1246L8.47987 31.3089ZM12.0087 40.8976C12.2955 40.8976 12.528 40.6599 12.528 40.3668C12.528 40.0737 12.2955 39.8361 12.0087 39.8361C11.7218 39.8361 11.4894 40.0737 11.4894 40.3668C11.4894 40.6599 11.7218 40.8976 12.0087 40.8976ZM14.4958 32.3703C14.7826 32.3703 15.0151 32.1327 15.0151 31.8396C15.0151 31.5465 14.7826 31.3089 14.4958 31.3089C14.209 31.3089 13.9765 31.5465 13.9765 31.8396C13.9765 32.1327 14.209 32.3703 14.4958 32.3703ZM24.9167 49.0701C25.2035 49.0701 25.436 48.8325 25.436 48.5394C25.436 48.2463 25.2035 48.0087 24.9167 48.0087C24.6299 48.0087 24.3974 48.2463 24.3974 48.5394C24.3974 48.8325 24.6299 49.0701 24.9167 49.0701ZM4.87678 22.9236C4.87678 23.2167 4.64428 23.4543 4.35746 23.4543C4.07066 23.4543 3.83815 23.2167 3.83815 22.9236C3.83815 22.7173 3.95341 22.5384 4.12174 22.4506L6.60226 19.4917L9.81389 19.2008L10.549 18.4932L11.3188 19.2008C11.3188 19.2008 10.9335 19.6399 10.5144 19.9162L7.12157 20.3054L4.86175 22.7964C4.87157 22.8371 4.87678 22.8797 4.87678 22.9236ZM5.1828 16.3021C5.46961 16.3021 5.70211 16.0645 5.70211 15.7714C5.70211 15.4783 5.46961 15.2407 5.1828 15.2407C4.89599 15.2407 4.66348 15.4783 4.66348 15.7714C4.66348 16.0645 4.89599 16.3021 5.1828 16.3021ZM14.4347 32.9718C14.4347 32.9718 14.0862 32.7622 13.7076 32.5826L13.3268 33.2018L12.946 33.8209V38.1374L12.2108 39.3758L12.834 39.8361L13.785 38.1374V34.4224L14.4347 32.9718ZM14.5997 43.8691V44.5414L13.2841 43.4446V40.3668L14.9805 38.0313L14.4958 37.6419V34.5639L15.6383 33.3964V31.0612L16.2615 29.9998V33.5379L15.0498 34.7055V37.0354L15.9153 37.8544L15.1583 39.0219H16.7462V34.3163L17.3644 34.948V39.2696V42.0595L18.7196 43.4446V45.4967L20.2775 47.0888H21.2469V48.1148H19.8967L17.6809 45.8505V43.6215L16.7462 42.6662V39.8361H14.6303L14.0111 40.791V43.2677L14.5997 43.8691ZM20.0562 45.2136V41.3571H19.689V39.0219L20.0562 39.6588L20.1044 40.5787H20.7622V44.5414L22.6182 45.992V46.4873L23.8088 47.6549L23.4626 48.1856L22.4933 47.5841V48.5748L23.1164 49.242L23.4626 48.8225L23.8435 49.4239L23.2549 50.0962L21.7662 48.504V46.4873L20.0562 45.2136ZM15.6776 41.7108C15.9644 41.7108 16.1969 41.4732 16.1969 41.1801C16.1969 40.887 15.9644 40.6494 15.6776 40.6494C15.3907 40.6494 15.1583 40.887 15.1583 41.1801C15.1583 41.4732 15.3907 41.7108 15.6776 41.7108ZM18.9965 37.5359L18.3734 36.5805V42.1708L19.1004 42.9138V45.2136H19.5159V42.3831L18.9965 41.8524V37.5359ZM23.8781 41.8878V47.1242L23.2895 46.5227V41.2863L23.8781 41.8878ZM22.0432 41.1751L21.4596 40.5787V44.4049L22.8741 45.4967V44.506L22.0432 43.8691V41.1751ZM22.8395 41.6246L22.424 41.2658V43.5861H22.8395V41.6246ZM7.36392 22.7113L8.26405 22.9236L10.9299 20.8008L9.68351 20.7654L7.36392 22.7113ZM6.59415 18.9609L9.81389 17.1211L10.2334 17.4219L10.6529 17.7226L8.50639 18.784L6.59415 18.9609ZM5.80597 17.3334L8.78336 15.3521L8.96055 16.1835L9.38002 16.4843L6.32529 18.2179L3.72872 21.3315L3.79796 19.9162L5.80597 17.3334ZM5.8406 14.8214L4.94045 14.7506C5.8743 13.4715 6.83753 13.0827 8.78336 12.557L7.95246 14.0076C7.04232 14.3387 6.64516 14.5074 6.0137 15.1044L5.8406 14.8214ZM5.14818 17.1919L6.0137 16.1835L6.1868 15.6106C6.92078 15.1983 7.31588 14.9465 8.05632 14.5029L8.71412 14.9629L5.39052 17.1211L5.14818 17.1919ZM17.7848 7.8867C19.6151 9.16919 20.432 9.9354 21.1777 11.4602C21.2815 10.4341 21.1965 9.69417 18.7542 7.53289L18.5465 7.78056L17.5425 7.17908L16.9539 7.78056L17.5425 8.0636L17.7848 7.8867ZM16.8235 6.4007C18.2695 6.47146 19.7236 7.28522 21.8355 9.76189C21.42 7.70979 19.3774 5.98562 16.9539 5.86999V5.48079L15.231 5.16237L15.119 5.55156C12.8686 4.73779 10.9299 5.32377 9.99509 6.03139C11.9685 5.92525 13.4226 5.48079 14.9459 6.15303L14.842 7.03756L16.6158 7.35599L16.8235 6.4007ZM18.8927 3.25179C22.4933 2.33189 24.5705 8.8066 23.6704 11.2125C23.3004 8.85968 23.0818 8.48818 22.5958 7.07294L22.2163 7.53289C22.6317 8.62977 22.8189 9.23118 22.6861 10.1511C22.1611 8.94813 22.0274 8.1844 21.1777 7.35599L22.0525 6.25918C21.1084 4.63165 20.1884 4.30589 18.8927 3.25179ZM23.6011 2.45572L23.1511 2.1196L23.0818 4.98546L23.9473 6.25918C24.271 7.99263 24.4054 8.40758 24.6051 8.70046V6.25918L23.5665 4.7201L23.6011 2.45572ZM39.4494 14.5686C39.3334 15.422 39.1684 15.8851 38.5146 16.6561C42.6332 15.0284 38.2015 6.92617 35.7783 11.0304C38.2364 9.57975 40.2783 12.764 38.4787 15.5944L39.4494 14.5686ZM38.0633 15.2407L37.8555 14.6746C38.1333 13.6641 37.7269 12.942 36.8515 12.3041L37.3362 11.9149C37.8902 10.6412 39.8289 13.2948 38.0633 15.2407ZM34.2216 17.9703L34.4986 18.3948C35.7183 18.6618 36.3225 18.9316 37.3266 19.5206C36.4696 18.5604 35.8096 18.1961 34.2216 17.9703ZM33.8754 17.2273C35.6077 17.4263 36.4286 17.7553 37.6837 18.6425C36.5037 17.0585 35.5687 16.5389 33.1515 16.6561L33.8754 17.2273ZM33.0792 16.0243C34.9921 15.9195 35.8603 16.3773 37.3294 17.4041C35.8835 15.7767 35.3939 15.3524 32.3174 15.4936L33.0792 16.0243ZM33.46 14.7506C35.4791 14.8294 36.2492 15.2891 37.2337 16.555C36.4971 14.9335 35.7681 14.3878 34.0139 13.9368C33.7087 14.174 33.5931 14.3573 33.46 14.7506ZM33.6677 13.4769C35.4485 13.72 36.4801 14.4322 37.1725 15.3875C36.9302 13.3 34.0998 11.7491 30.3787 12.6985C31.5986 13.0523 32.5595 12.8417 33.737 13.1231L33.6677 13.4769ZM31.0365 11.0304C34.8448 10.6818 34.7756 11.7078 36.3681 12.9816C34.7756 12.3041 33.7861 11.528 30.9672 11.7078L31.0365 11.0304ZM33.0099 14.7506H32.0751C31.7696 14.2145 31.3697 14.0109 30.7249 13.6184L32.8714 13.6892L33.2176 14.2907C33.1715 14.444 33.0653 14.7506 33.0099 14.7506ZM34.4986 8.73584C31.6571 9.31673 30.7699 10.2391 29.2708 11.9555C29.8675 8.94813 35.58 6.18841 39.6652 8.48818L38.5146 8.73584C40.5642 9.28616 41.3617 10.2218 42.1514 11.4248C39.9341 10.2926 38.757 9.16041 35.745 8.73584L35.7783 9.44346C34.4499 9.82246 33.9101 10.0231 33.2257 10.611L32.6026 10.4695C33.0936 9.66169 33.5356 9.51486 34.5499 9.17789L34.6025 9.16041L34.4986 8.73584ZM36.2989 21.013L35.2603 20.0224C38.6185 20.8008 40.5256 22.4789 42.9115 24.728L43.9501 24.6219C44.5856 25.3746 45.5336 26.2529 46.0966 27.1339V29.1507C45.4319 27.4339 44.7087 26.3979 43.9501 25.8248C42.8423 26.8155 41.0052 22.7383 36.2989 21.013ZM38.48 23.3482L36.0219 22.1806L35.9181 21.6499C37.2529 21.8998 38.5216 22.4491 41.3536 25.5418H42.0806C42.1268 25.9428 42.3229 26.8509 42.3229 26.8509C42.3229 26.8509 41.9306 27.0278 41.8383 27.0278L41.6651 26.0725L40.8342 26.214C40.8573 26.0371 40.8342 25.6479 40.8342 25.6479C40.8342 25.6479 39.2417 24.5039 38.48 24.0558V23.3482ZM44.8157 29.4089C44.5289 29.4089 44.2963 29.1713 44.2963 28.8782L43.327 28.1246L42.7038 28.4536L43.7078 30.2121L45.4735 33.9271L43.4308 31.9458L42.7038 30.2121L41.5613 28.5492C37.796 25.1301 36.8875 25.0818 36.8875 25.0818L36.0219 23.8435C38.8626 24.7981 39.484 25.6479 41.8383 27.8416L43.4308 27.3108L44.5041 28.4536C44.5909 28.387 44.6988 28.3475 44.8157 28.3475C45.1025 28.3475 45.335 28.5851 45.335 28.8782C45.335 29.1713 45.1025 29.4089 44.8157 29.4089ZM41.8383 37.6419C41.5515 37.6419 41.3189 37.4043 41.3189 37.1112C41.3189 36.9919 41.3575 36.8816 41.4227 36.7929L40.9808 34.9531L39.8383 33.9271L38.3496 31.3089V32.2642L38.6266 32.7241V36.4038L39.9768 38.1374V41.4322C40.0998 41.5292 40.179 41.6814 40.179 41.8524C40.179 42.1455 39.9465 42.3831 39.6597 42.3831C39.3729 42.3831 39.1404 42.1455 39.1404 41.8524C39.1404 41.7296 39.1812 41.6164 39.2498 41.5265V38.4912L37.6226 36.5805V31.3089L37.2764 30.4192L36.5494 30.7782L35.1645 30.2121V28.3723L34.4721 27.6647L35.1645 26.7448L35.9181 27.6647L35.7877 29.0747L36.7571 29.3276L37.5187 28.5492L40.179 32.9718L41.5613 34.2809L42.1915 36.7222C42.2937 36.8191 42.3576 36.9575 42.3576 37.1112C42.3576 37.4043 42.1251 37.6419 41.8383 37.6419ZM41.3536 31.3089L44.2963 34.0331L42.9115 33.6794L40.179 31.6273L38.9383 28.5492L36.0219 26.5678L35.857 25.0818L39.8038 28.1246L41.3536 31.3089ZM37.8248 40.8976C37.538 40.8976 37.3055 40.6599 37.3055 40.3668C37.3055 40.0737 37.538 39.8361 37.8248 39.8361C38.1116 39.8361 38.3441 40.0737 38.3441 40.3668C38.3441 40.6599 38.1116 40.8976 37.8248 40.8976ZM35.3376 32.3703C35.0508 32.3703 34.8183 32.1327 34.8183 31.8396C34.8183 31.5465 35.0508 31.3089 35.3376 31.3089C35.6244 31.3089 35.8569 31.5465 35.8569 31.8396C35.8569 32.1327 35.6244 32.3703 35.3376 32.3703ZM45.476 23.4543C45.1892 23.4543 44.9567 23.2167 44.9567 22.9236C44.9567 22.8797 44.9619 22.8371 44.9717 22.7964L42.7119 20.3054L39.319 19.9162C38.8999 19.6399 38.5146 19.2008 38.5146 19.2008L39.2844 18.4932L40.0195 19.2008L43.2312 19.4917L45.7117 22.4506C45.88 22.5384 45.9953 22.7173 45.9953 22.9236C45.9953 23.2167 45.7628 23.4543 45.476 23.4543ZM44.6507 16.3021C44.3639 16.3021 44.1313 16.0645 44.1313 15.7714C44.1313 15.4783 44.3639 15.2407 44.6507 15.2407C44.9375 15.2407 45.17 15.4783 45.17 15.7714C45.17 16.0645 44.9375 16.3021 44.6507 16.3021ZM35.3988 32.9718C35.3988 32.9718 35.7473 32.7622 36.1258 32.5826L36.5066 33.2018L36.8875 33.8209V38.1374L37.6226 39.3758L36.9994 39.8361L36.0485 38.1374V34.4224L35.3988 32.9718ZM35.2338 43.8691V44.5414L36.5494 43.4446V40.3668L34.8529 38.0313L35.3376 37.6419V34.5639L34.1951 33.3964V31.0612L33.572 29.9998V33.5379L34.7837 34.7055V37.0354L33.9182 37.8544L34.6753 39.0219H33.0873V34.3163L32.4691 34.948V39.2696V42.0595L31.1139 43.4446V45.4967L29.5559 47.0888H28.5865V48.1148H29.9368L32.1525 45.8505V43.6215L33.0873 42.6662V39.8361H35.2032L35.8223 40.791V43.2677L35.2338 43.8691ZM29.7772 45.2136V41.3571H30.1445V39.0219L29.7772 39.6588L29.729 40.5787H29.0712V44.5414L27.2153 45.992V46.4873L26.0246 47.6549L26.3708 48.1856L27.3402 47.5841V48.5748L26.717 49.242L26.3708 48.8225L25.99 49.4239L26.5785 50.0962L28.0672 48.504V46.4873L29.7772 45.2136ZM34.1559 41.7108C33.8691 41.7108 33.6366 41.4732 33.6366 41.1801C33.6366 40.887 33.8691 40.6494 34.1559 40.6494C34.4427 40.6494 34.6753 40.887 34.6753 41.1801C34.6753 41.4732 34.4427 41.7108 34.1559 41.7108ZM30.8369 37.5359L31.4601 36.5805V42.1708L30.733 42.9138V45.2136H30.3176V42.3831L30.8369 41.8524V37.5359ZM25.9553 41.8878V47.1242L26.5439 46.5227V41.2863L25.9553 41.8878ZM27.7903 41.1751L28.3739 40.5787V44.4049L26.9594 45.4967V44.506L27.7903 43.8691V41.1751ZM26.994 41.6246L27.4094 41.2658V43.5861H26.994V41.6246ZM42.4695 22.7113L41.5694 22.9236L38.9036 20.8008L40.1499 20.7654L42.4695 22.7113ZM43.2393 18.9609L40.0195 17.1211L39.6001 17.4219L39.1805 17.7226L41.327 18.784L43.2393 18.9609ZM44.0275 17.3334L41.0501 15.3521L40.873 16.1835L40.4534 16.4843L43.5082 18.2179L46.1047 21.3315L46.0355 19.9162L44.0275 17.3334ZM43.9929 14.8214L44.893 14.7506C43.9592 13.4715 42.9959 13.0827 41.0501 12.557L41.881 14.0076C42.7912 14.3387 43.1883 14.5074 43.8197 15.1044L43.9929 14.8214ZM44.6853 17.1919L43.8197 16.1835L43.6466 15.6106C42.9127 15.1983 42.5176 14.9465 41.7771 14.5029L41.1193 14.9629L44.4429 17.1211L44.6853 17.1919ZM32.0486 7.8867C30.2184 9.16919 29.4014 9.9354 28.6558 11.4602C28.5519 10.4341 28.6369 9.69417 31.0792 7.53289L31.287 7.78056L32.291 7.17908L32.8795 7.78056L32.291 8.0636L32.0486 7.8867ZM33.0099 6.4007C31.5639 6.47146 30.1099 7.28522 27.998 9.76189C28.4134 7.70979 30.456 5.98562 32.8795 5.86999V5.48079L34.6025 5.16237L34.7144 5.55156C36.9648 4.73779 38.9036 5.32377 39.8383 6.03139C37.8649 5.92525 36.4109 5.48079 34.8875 6.15303L34.9914 7.03756L33.2176 7.35599L33.0099 6.4007ZM30.9408 3.25179C27.3402 2.33189 25.2629 8.8066 26.1631 11.2125C26.5331 8.85968 26.7516 8.48818 27.2377 7.07294L27.6172 7.53289C27.2017 8.62977 27.0145 9.23118 27.1474 10.1511C27.6723 8.94813 27.8061 8.1844 28.6558 7.35599L27.781 6.25918C28.725 4.63165 29.6451 4.30589 30.9408 3.25179ZM26.2323 2.45572L26.6824 2.1196L26.7516 4.98546L25.8861 6.25918C25.5625 7.99263 25.4281 8.40758 25.2283 8.70046V6.25918L26.2669 4.7201L26.2323 2.45572Z" fill="url(#paint4_radial_2225_4096)"/>
</g>
</g>
</g>
<g filter="url(#filter5_d_2225_4096)">
<path d="M57.7285 24L60.9415 10.14H66.4225C67.8225 10.14 68.9845 10.378 69.9085 10.854C70.8325 11.316 71.5255 11.974 71.9875 12.828C72.4495 13.668 72.6805 14.662 72.6805 15.81C72.6805 17.056 72.5125 18.183 72.1765 19.191C71.8405 20.199 71.3365 21.06 70.6645 21.774C70.0065 22.488 69.2015 23.041 68.2495 23.433C67.2975 23.811 66.1985 24 64.9525 24H57.7285ZM63.4405 20.514H64.5955C65.1695 20.514 65.6595 20.367 66.0655 20.073C66.4855 19.779 66.8215 19.394 67.0735 18.918C67.3255 18.442 67.5075 17.924 67.6195 17.364C67.7455 16.79 67.8085 16.23 67.8085 15.684C67.8085 15.236 67.7385 14.858 67.5985 14.55C67.4585 14.242 67.2485 14.011 66.9685 13.857C66.6885 13.703 66.3315 13.626 65.8975 13.626H65.0155L63.4405 20.514ZM77.2792 24.21C76.6632 24.21 76.0962 24.07 75.5782 23.79C75.0742 23.496 74.6752 23.062 74.3812 22.488C74.0872 21.9 73.9402 21.158 73.9402 20.262C73.9402 19.436 74.0522 18.61 74.2762 17.784C74.5002 16.958 74.8292 16.209 75.2632 15.537C75.6972 14.851 76.2292 14.305 76.8592 13.899C77.4892 13.493 78.2102 13.29 79.0222 13.29C79.3862 13.29 79.7572 13.36 80.1352 13.5C80.5132 13.64 80.8492 13.878 81.1432 14.214C81.4372 14.536 81.6332 14.998 81.7312 15.6L82.2142 13.5H87.0442L84.6082 24H80.1982L80.5552 22.005C80.2052 22.691 79.7432 23.23 79.1692 23.622C78.6092 24.014 77.9792 24.21 77.2792 24.21ZM79.5892 20.808C79.8412 20.808 80.0652 20.71 80.2612 20.514C80.4572 20.304 80.6182 20.038 80.7442 19.716C80.8842 19.394 80.9822 19.065 81.0382 18.729C81.1082 18.379 81.1432 18.071 81.1432 17.805C81.1432 17.567 81.1082 17.371 81.0382 17.217C80.9822 17.049 80.8912 16.923 80.7652 16.839C80.6532 16.755 80.5062 16.713 80.3242 16.713C80.0302 16.713 79.7782 16.825 79.5682 17.049C79.3722 17.259 79.2112 17.525 79.0852 17.847C78.9592 18.155 78.8612 18.477 78.7912 18.813C78.7352 19.135 78.7072 19.401 78.7072 19.611C78.7072 19.849 78.7352 20.059 78.7912 20.241C78.8612 20.423 78.9592 20.563 79.0852 20.661C79.2112 20.759 79.3792 20.808 79.5892 20.808ZM87.0471 24L89.4831 13.5H93.7881L93.1581 17.511L92.9901 17.091C93.2841 15.887 93.8021 14.956 94.5441 14.298C95.2861 13.626 96.1961 13.29 97.2741 13.29C97.9881 13.29 98.5831 13.451 99.0591 13.773C99.5351 14.081 99.8641 14.522 100.046 15.096C100.228 15.67 100.228 16.356 100.046 17.154L98.4501 24H93.6201L95.0481 17.91C95.1181 17.588 95.0901 17.336 94.9641 17.154C94.8521 16.958 94.6561 16.86 94.3761 16.86C94.1801 16.86 94.0051 16.916 93.8511 17.028C93.6971 17.126 93.5641 17.28 93.4521 17.49C93.3541 17.686 93.2701 17.938 93.2001 18.246L91.8771 24H87.0471ZM106.098 12.828C105.3 12.828 104.684 12.681 104.25 12.387C103.83 12.093 103.676 11.589 103.788 10.875C103.9 10.091 104.173 9.552 104.607 9.258C105.055 8.95 105.706 8.796 106.56 8.796C107.386 8.796 108.009 8.95 108.429 9.258C108.863 9.552 109.024 10.028 108.912 10.686C108.8 11.54 108.513 12.114 108.051 12.408C107.603 12.688 106.952 12.828 106.098 12.828ZM108.156 13.5L105.72 24H100.89L103.326 13.5H108.156ZM114.595 24.189C113.517 24.189 112.551 24 111.697 23.622C110.857 23.244 110.199 22.698 109.723 21.984C109.247 21.256 109.009 20.395 109.009 19.401C109.009 18.169 109.261 17.098 109.765 16.188C110.283 15.264 111.004 14.55 111.928 14.046C112.866 13.542 113.958 13.29 115.204 13.29C116.338 13.29 117.304 13.493 118.102 13.899C118.9 14.291 119.502 14.837 119.908 15.537C120.328 16.237 120.538 17.049 120.538 17.973C120.538 18.239 120.524 18.519 120.496 18.813C120.468 19.107 120.412 19.394 120.328 19.674H112.306L112.285 17.889H116.989L115.834 18.33C115.904 18.134 115.939 17.973 115.939 17.847C115.953 17.721 115.96 17.602 115.96 17.49C115.96 17.224 115.918 17.021 115.834 16.881C115.764 16.727 115.666 16.622 115.54 16.566C115.414 16.496 115.274 16.461 115.12 16.461C114.756 16.461 114.455 16.566 114.217 16.776C113.993 16.986 113.818 17.259 113.692 17.595C113.58 17.931 113.503 18.288 113.461 18.666C113.419 19.044 113.398 19.394 113.398 19.716C113.398 20.038 113.454 20.297 113.566 20.493C113.678 20.689 113.832 20.829 114.028 20.913C114.238 20.997 114.469 21.039 114.721 21.039C115.085 21.039 115.365 20.948 115.561 20.766C115.771 20.57 115.918 20.346 116.002 20.094L120.034 21.396C119.824 21.984 119.453 22.488 118.921 22.908C118.389 23.328 117.752 23.65 117.01 23.874C116.268 24.084 115.463 24.189 114.595 24.189ZM125.785 24.21C124.343 24.21 123.321 23.832 122.719 23.076C122.117 22.306 121.97 21.263 122.278 19.947L124.756 9.3H129.586L127.15 19.821C127.052 20.227 127.066 20.535 127.192 20.745C127.318 20.955 127.57 21.06 127.948 21.06C128.088 21.06 128.207 21.053 128.305 21.039C128.417 21.025 128.501 21.011 128.557 20.997L127.78 23.937C127.556 24.035 127.283 24.105 126.961 24.147C126.639 24.189 126.247 24.21 125.785 24.21ZM60.6332 44.21C59.3592 44.21 58.2322 43.965 57.2522 43.475C56.2862 42.971 55.5232 42.271 54.9632 41.375C54.4172 40.465 54.1442 39.408 54.1442 38.204C54.1442 36.93 54.3192 35.789 54.6692 34.781C55.0332 33.759 55.5512 32.891 56.2232 32.177C56.8952 31.449 57.7142 30.896 58.6802 30.518C59.6462 30.126 60.7382 29.93 61.9562 29.93C63.1042 29.93 64.1192 30.126 65.0012 30.518C65.8972 30.91 66.6182 31.477 67.1642 32.219C67.7242 32.947 68.0672 33.829 68.1932 34.865L63.5732 35.768C63.6012 35.068 63.4822 34.536 63.2162 34.172C62.9642 33.794 62.5302 33.605 61.9142 33.605C61.3962 33.605 60.9482 33.766 60.5702 34.088C60.2062 34.41 59.9052 34.823 59.6672 35.327C59.4292 35.817 59.2542 36.342 59.1422 36.902C59.0442 37.462 58.9952 37.987 58.9952 38.477C58.9952 38.897 59.0582 39.261 59.1842 39.569C59.3242 39.877 59.5342 40.115 59.8142 40.283C60.0942 40.451 60.4652 40.535 60.9272 40.535C61.5012 40.535 61.9492 40.353 62.2712 39.989C62.6072 39.625 62.8872 39.156 63.1112 38.582L67.4162 40.157C66.8002 41.431 65.9322 42.425 64.8122 43.139C63.7062 43.853 62.3132 44.21 60.6332 44.21ZM68.2218 44L70.6578 33.5H75.0048L74.1018 38.246L73.9968 37.763C74.2208 36.881 74.5078 36.104 74.8578 35.432C75.2078 34.76 75.6558 34.235 76.2018 33.857C76.7618 33.479 77.4408 33.29 78.2388 33.29C78.4768 33.29 78.6728 33.311 78.8268 33.353C78.9808 33.381 79.1068 33.423 79.2048 33.479L78.0918 37.427C77.9518 37.357 77.7838 37.301 77.5878 37.259C77.3918 37.217 77.1328 37.196 76.8108 37.196C76.4328 37.196 76.0548 37.28 75.6768 37.448C75.3128 37.602 74.9838 37.861 74.6898 38.225C74.4098 38.589 74.1928 39.086 74.0388 39.716L73.0518 44H68.2218ZM84.8804 44.189C83.8024 44.189 82.8364 44 81.9824 43.622C81.1424 43.244 80.4844 42.698 80.0084 41.984C79.5324 41.256 79.2944 40.395 79.2944 39.401C79.2944 38.169 79.5464 37.098 80.0504 36.188C80.5684 35.264 81.2894 34.55 82.2134 34.046C83.1514 33.542 84.2434 33.29 85.4894 33.29C86.6234 33.29 87.5894 33.493 88.3874 33.899C89.1854 34.291 89.7874 34.837 90.1934 35.537C90.6134 36.237 90.8234 37.049 90.8234 37.973C90.8234 38.239 90.8094 38.519 90.7814 38.813C90.7534 39.107 90.6974 39.394 90.6134 39.674H82.5914L82.5704 37.889H87.2744L86.1194 38.33C86.1894 38.134 86.2244 37.973 86.2244 37.847C86.2384 37.721 86.2454 37.602 86.2454 37.49C86.2454 37.224 86.2034 37.021 86.1194 36.881C86.0494 36.727 85.9514 36.622 85.8254 36.566C85.6994 36.496 85.5594 36.461 85.4054 36.461C85.0414 36.461 84.7404 36.566 84.5024 36.776C84.2784 36.986 84.1034 37.259 83.9774 37.595C83.8654 37.931 83.7884 38.288 83.7464 38.666C83.7044 39.044 83.6834 39.394 83.6834 39.716C83.6834 40.038 83.7394 40.297 83.8514 40.493C83.9634 40.689 84.1174 40.829 84.3134 40.913C84.5234 40.997 84.7544 41.039 85.0064 41.039C85.3704 41.039 85.6504 40.948 85.8464 40.766C86.0564 40.57 86.2034 40.346 86.2874 40.094L90.3194 41.396C90.1094 41.984 89.7384 42.488 89.2064 42.908C88.6744 43.328 88.0374 43.65 87.2954 43.874C86.5534 44.084 85.7484 44.189 84.8804 44.189ZM95.7141 44.21C95.0981 44.21 94.5311 44.07 94.0131 43.79C93.5091 43.496 93.1101 43.062 92.8161 42.488C92.5221 41.9 92.3751 41.158 92.3751 40.262C92.3751 39.436 92.4871 38.61 92.7111 37.784C92.9351 36.958 93.2641 36.209 93.6981 35.537C94.1321 34.851 94.6641 34.305 95.2941 33.899C95.9241 33.493 96.6451 33.29 97.4571 33.29C97.8211 33.29 98.1921 33.36 98.5701 33.5C98.9481 33.64 99.2841 33.878 99.5781 34.214C99.8721 34.536 100.068 34.998 100.166 35.6L100.649 33.5H105.479L103.043 44H98.6331L98.9901 42.005C98.6401 42.691 98.1781 43.23 97.6041 43.622C97.0441 44.014 96.4141 44.21 95.7141 44.21ZM98.0241 40.808C98.2761 40.808 98.5001 40.71 98.6961 40.514C98.8921 40.304 99.0531 40.038 99.1791 39.716C99.3191 39.394 99.4171 39.065 99.4731 38.729C99.5431 38.379 99.5781 38.071 99.5781 37.805C99.5781 37.567 99.5431 37.371 99.4731 37.217C99.4171 37.049 99.3261 36.923 99.2001 36.839C99.0881 36.755 98.9411 36.713 98.7591 36.713C98.4651 36.713 98.2131 36.825 98.0031 37.049C97.8071 37.259 97.6461 37.525 97.5201 37.847C97.3941 38.155 97.2961 38.477 97.2261 38.813C97.1701 39.135 97.1421 39.401 97.1421 39.611C97.1421 39.849 97.1701 40.059 97.2261 40.241C97.2961 40.423 97.3941 40.563 97.5201 40.661C97.6461 40.759 97.8141 40.808 98.0241 40.808ZM111.675 44.21C110.681 44.21 109.841 44.049 109.155 43.727C108.469 43.391 107.986 42.894 107.706 42.236C107.44 41.564 107.419 40.724 107.643 39.716L109.596 31.274L114.741 29.93L112.515 39.527C112.375 40.003 112.424 40.381 112.662 40.661C112.914 40.927 113.32 41.06 113.88 41.06C114.188 41.06 114.419 41.046 114.573 41.018C114.741 40.99 114.895 40.955 115.035 40.913L114.447 43.811C114.055 43.951 113.614 44.049 113.124 44.105C112.648 44.175 112.165 44.21 111.675 44.21ZM106.509 36.755L107.265 33.5H116.526L115.77 36.755H106.509ZM122.753 44.21C121.647 44.21 120.681 44.007 119.855 43.601C119.043 43.195 118.406 42.635 117.944 41.921C117.496 41.193 117.272 40.36 117.272 39.422C117.272 38.33 117.51 37.322 117.986 36.398C118.462 35.46 119.169 34.711 120.107 34.151C121.059 33.577 122.242 33.29 123.656 33.29C124.762 33.29 125.721 33.493 126.533 33.899C127.359 34.305 127.996 34.872 128.444 35.6C128.906 36.314 129.137 37.14 129.137 38.078C129.137 39.156 128.899 40.164 128.423 41.102C127.947 42.04 127.233 42.796 126.281 43.37C125.343 43.93 124.167 44.21 122.753 44.21ZM122.795 40.976C123.061 40.976 123.292 40.857 123.488 40.619C123.698 40.381 123.873 40.08 124.013 39.716C124.153 39.338 124.258 38.96 124.328 38.582C124.398 38.19 124.433 37.847 124.433 37.553C124.433 37.287 124.391 37.084 124.307 36.944C124.237 36.79 124.139 36.685 124.013 36.629C123.887 36.559 123.747 36.524 123.593 36.524C123.327 36.524 123.089 36.643 122.879 36.881C122.683 37.119 122.515 37.427 122.375 37.805C122.235 38.169 122.13 38.547 122.06 38.939C121.99 39.317 121.955 39.653 121.955 39.947C121.955 40.199 121.99 40.402 122.06 40.556C122.144 40.71 122.249 40.822 122.375 40.892C122.501 40.948 122.641 40.976 122.795 40.976ZM129.946 44L132.382 33.5H136.729L135.826 38.246L135.721 37.763C135.945 36.881 136.232 36.104 136.582 35.432C136.932 34.76 137.38 34.235 137.926 33.857C138.486 33.479 139.165 33.29 139.963 33.29C140.201 33.29 140.397 33.311 140.551 33.353C140.705 33.381 140.831 33.423 140.929 33.479L139.816 37.427C139.676 37.357 139.508 37.301 139.312 37.259C139.116 37.217 138.857 37.196 138.535 37.196C138.157 37.196 137.779 37.28 137.401 37.448C137.037 37.602 136.708 37.861 136.414 38.225C136.134 38.589 135.917 39.086 135.763 39.716L134.776 44H129.946Z" fill="#F5F5F5"/>
</g>
<defs>
<filter id="filter0_d_2225_4096" x="11.5166" y="20.2676" width="14.2119" height="13.2202" filterUnits="userSpaceOnUse" color-interpolation-filters="sRGB">
<feFlood flood-opacity="0" result="BackgroundImageFix"/>
<feColorMatrix in="SourceAlpha" type="matrix" values="0 0 0 0 0 0 0 0 0 0 0 0 0 0 0 0 0 0 127 0" result="hardAlpha"/>
<feOffset dy="5"/>
<feGaussianBlur stdDeviation="2"/>
<feComposite in2="hardAlpha" operator="out"/>
<feColorMatrix type="matrix" values="0 0 0 0 0 0 0 0 0 0 0 0 0 0 0 0 0 0 0.3 0"/>
<feBlend mode="normal" in2="BackgroundImageFix" result="effect1_dropShadow_2225_4096"/>
<feBlend mode="normal" in="SourceGraphic" in2="effect1_dropShadow_2225_4096" result="shape"/>
</filter>
<filter id="filter1_d_2225_4096" x="13.1396" y="21.0498" width="11.085" height="10.5225" filterUnits="userSpaceOnUse" color-interpolation-filters="sRGB">
<feFlood flood-opacity="0" result="BackgroundImageFix"/>
<feColorMatrix in="SourceAlpha" type="matrix" values="0 0 0 0 0 0 0 0 0 0 0 0 0 0 0 0 0 0 127 0" result="hardAlpha"/>
<feOffset dy="5"/>
<feGaussianBlur stdDeviation="2"/>
<feComposite in2="hardAlpha" operator="out"/>
<feColorMatrix type="matrix" values="0 0 0 0 0 0 0 0 0 0 0 0 0 0 0 0 0 0 0.3 0"/>
<feBlend mode="normal" in2="BackgroundImageFix" result="effect1_dropShadow_2225_4096"/>
<feBlend mode="normal" in="SourceGraphic" in2="effect1_dropShadow_2225_4096" result="shape"/>
</filter>
<filter id="filter2_d_2225_4096" x="24.2588" y="20.2676" width="14.2119" height="13.2202" filterUnits="userSpaceOnUse" color-interpolation-filters="sRGB">
<feFlood flood-opacity="0" result="BackgroundImageFix"/>
<feColorMatrix in="SourceAlpha" type="matrix" values="0 0 0 0 0 0 0 0 0 0 0 0 0 0 0 0 0 0 127 0" result="hardAlpha"/>
<feOffset dy="5"/>
<feGaussianBlur stdDeviation="2"/>
<feComposite in2="hardAlpha" operator="out"/>
<feColorMatrix type="matrix" values="0 0 0 0 0 0 0 0 0 0 0 0 0 0 0 0 0 0 0.3 0"/>
<feBlend mode="normal" in2="BackgroundImageFix" result="effect1_dropShadow_2225_4096"/>
<feBlend mode="normal" in="SourceGraphic" in2="effect1_dropShadow_2225_4096" result="shape"/>
</filter>
<filter id="filter3_d_2225_4096" x="25.7637" y="21.0498" width="11.085" height="10.5225" filterUnits="userSpaceOnUse" color-interpolation-filters="sRGB">
<feFlood flood-opacity="0" result="BackgroundImageFix"/>
<feColorMatrix in="SourceAlpha" type="matrix" values="0 0 0 0 0 0 0 0 0 0 0 0 0 0 0 0 0 0 127 0" result="hardAlpha"/>
<feOffset dy="5"/>
<feGaussianBlur stdDeviation="2"/>
<feComposite in2="hardAlpha" operator="out"/>
<feColorMatrix type="matrix" values="0 0 0 0 0 0 0 0 0 0 0 0 0 0 0 0 0 0 0.3 0"/>
<feBlend mode="normal" in2="BackgroundImageFix" result="effect1_dropShadow_2225_4096"/>
<feBlend mode="normal" in="SourceGraphic" in2="effect1_dropShadow_2225_4096" result="shape"/>
</filter>
<filter id="filter4_d_2225_4096" x="-3.24219" y="0.739746" width="56.3174" height="61.2222" filterUnits="userSpaceOnUse" color-interpolation-filters="sRGB">
<feFlood flood-opacity="0" result="BackgroundImageFix"/>
<feColorMatrix in="SourceAlpha" type="matrix" values="0 0 0 0 0 0 0 0 0 0 0 0 0 0 0 0 0 0 127 0" result="hardAlpha"/>
<feOffset dy="5"/>
<feGaussianBlur stdDeviation="2"/>
<feComposite in2="hardAlpha" operator="out"/>
<feColorMatrix type="matrix" values="0 0 0 0 0 0 0 0 0 0 0 0 0 0 0 0 0 0 0.3 0"/>
<feBlend mode="normal" in2="BackgroundImageFix" result="effect1_dropShadow_2225_4096"/>
<feBlend mode="normal" in="SourceGraphic" in2="effect1_dropShadow_2225_4096" result="shape"/>
</filter>
<filter id="filter5_d_2225_4096" x="50.1445" y="8.7959" width="94.7842" height="44.4141" filterUnits="userSpaceOnUse" color-interpolation-filters="sRGB">
<feFlood flood-opacity="0" result="BackgroundImageFix"/>
<feColorMatrix in="SourceAlpha" type="matrix" values="0 0 0 0 0 0 0 0 0 0 0 0 0 0 0 0 0 0 127 0" result="hardAlpha"/>
<feOffset dy="5"/>
<feGaussianBlur stdDeviation="2"/>
<feComposite in2="hardAlpha" operator="out"/>
<feColorMatrix type="matrix" values="0 0 0 0 0.960784 0 0 0 0 0.960784 0 0 0 0 0.960784 0 0 0 0.5 0"/>
<feBlend mode="normal" in2="BackgroundImageFix" result="effect1_dropShadow_2225_4096"/>
<feBlend mode="normal" in="SourceGraphic" in2="effect1_dropShadow_2225_4096" result="shape"/>
</filter>
<linearGradient id="paint0_linear_2225_4096" x1="15.8538" y1="20.8361" x2="21.5978" y2="24.2633" gradientUnits="userSpaceOnUse">
<stop stop-color="#F7F7F7"/>
<stop offset="1" stop-color="#373838"/>
</linearGradient>
<linearGradient id="paint1_linear_2225_4096" x1="17.1694" y1="21.0838" x2="20.2402" y2="22.518" gradientUnits="userSpaceOnUse">
<stop stop-color="#F7F7F7"/>
<stop offset="1" stop-color="#373838" stop-opacity="0.59"/>
</linearGradient>
<linearGradient id="paint2_linear_2225_4096" x1="34.2027" y1="20.8007" x2="28.3898" y2="24.2272" gradientUnits="userSpaceOnUse">
<stop stop-color="#F7F7F7"/>
<stop offset="1" stop-color="#373838"/>
</linearGradient>
<linearGradient id="paint3_linear_2225_4096" x1="32.8876" y1="21.0838" x2="29.7479" y2="22.5176" gradientUnits="userSpaceOnUse">
<stop stop-color="#F7F7F7"/>
<stop offset="1" stop-color="#373838"/>
</linearGradient>
<radialGradient id="paint4_radial_2225_4096" cx="0" cy="0" r="1" gradientUnits="userSpaceOnUse" gradientTransform="translate(24.9167 26.8509) rotate(90) scale(26.1111 24.1589)">
<stop stop-color="#F7F7F7"/>
<stop offset="0.764729" stop-color="#373838"/>
</radialGradient>
<clipPath id="clip0_2225_4096">
<rect width="50" height="54" fill="white"/>
</clipPath>
<clipPath id="clip1_2225_4096">
<rect width="50" height="54" fill="white"/>
</clipPath>
</defs>
</svg>
